<svg xmlns="http://www.w3.org/2000/svg" version="1.1" xmlns:xlink="http://www.w3.org/1999/xlink" xmlns:svgjs="http://svgjs.dev/svgjs" width="1440" height="560" preserveAspectRatio="none" viewBox="0 0 1440 560"><g mask="url(&quot;#SvgjsMask1003&quot;)" fill="none"><rect width="1440" height="560" x="0" y="0" fill="url(&quot;#SvgjsLinearGradient1004&quot;)"></rect><path d="M248.71 0C271.52 6.88 256.81 33.72 280 42.22C342.45 65.1 356.92 75.44 420 62.76C461.92 54.33 449.88 17.99 490 0C519.88 -13.39 525 0 560 0C630 0 630 0 700 0C770 0 770 0 840 0C885.58 0 902.67 -25.14 931.16 0C972.67 36.63 957.79 123.53 980 123.53C1001.65 123.53 979.58 34.69 1018.89 0C1049.58 -27.08 1069.44 0 1120 0C1190 0 1190 0 1260 0C1330 0 1330 0 1400 0C1470 0 1500.07 -30.07 1540 0C1570.07 22.65 1555.25 60.49 1540 105.45C1531.5 130.49 1492.5 120.53 1492.5 140C1492.5 162.9 1529.67 159.75 1540 190.19C1553.42 229.75 1540 235.1 1540 280C1540 326.66 1549.77 329.64 1540 373.33C1534.11 399.64 1508.68 395.75 1508.68 420C1508.68 449.6 1532.72 448.49 1540 481.03C1548.38 518.49 1560.53 541.05 1540 560C1517.75 580.53 1495.39 567.85 1454.44 560C1425.39 554.43 1428.68 533.15 1400 533.15C1347.01 533.15 1345.91 549.49 1291.11 560C1275.91 562.92 1275.55 560 1260 560C1190 560 1190 560 1120 560C1056.9 560 1042.99 578.12 993.8 560C972.99 552.33 987.75 508.42 980 508.42C972.1 508.42 984.04 552.06 962.5 560C914.04 577.85 901.25 560 840 560C770 560 770 560 700 560C630 560 630 560 560 560C490 560 490 560 420 560C350 560 350 560 280 560C210 560 210 560 140 560C70 560 35 595 0 560C-35 525 0 490 0 420C0 375.74 -19.49 365 0 331.47C21.21 295 81.4 305.09 81.4 280C81.4 255.38 20.61 267.5 0 232.05C-20.09 197.5 0 186.02 0 140C0 70 -35 35 0 0C35 -35 70 0 140 0C194.36 0 201.52 -14.23 248.71 0" stroke="rgba(51, 121, 194, 0.58)" stroke-width="2"></path><path d="M560 91C531.47 94.17 517.39 119.31 517.39 140C517.39 155.48 543.86 145.76 560 163.33C608.15 215.76 597.49 227.49 645.96 280C667.49 303.33 674.57 315 700 315C720.15 315 734.9 303.19 737.11 280C743.24 215.69 732.32 207.6 716.67 140C713.77 127.45 712.16 123.51 700 119.71C633.82 99.01 622.78 84.02 560 91" stroke="rgba(51, 121, 194, 0.58)" stroke-width="2"></path><path d="M280 230.59C239.73 230.59 210.01 242.44 200 280C184.77 337.15 202.11 357.6 229.51 420C242.11 448.7 252.81 462.19 280 462.19C315.61 462.19 339.14 454.66 355.12 420C381.14 363.57 386.16 335.88 364 280C348.6 241.18 321.73 230.59 280 230.59" stroke="rgba(51, 121, 194, 0.58)" stroke-width="2"></path><path d="M980 165.45C966.49 165.45 962 223.34 962 280C962 310.61 967.05 340 980 340C994.58 340 1017.06 312.24 1017.06 280C1017.06 224.96 994.02 165.45 980 165.45" stroke="rgba(51, 121, 194, 0.58)" stroke-width="2"></path><path d="M1260 405.64C1228.87 405.64 1194.12 400.02 1194.12 420C1194.12 453.86 1237.43 513.33 1260 513.33C1278.73 513.33 1276.72 463.69 1276.72 420C1276.72 409.84 1270.17 405.64 1260 405.64" stroke="rgba(51, 121, 194, 0.58)" stroke-width="2"></path><path d="M207.53 0C252.55 31.44 234.84 60.03 280 97.78C318.57 130.03 375 119.54 375 140C375 160.21 326.09 156.59 280 179.12C208.59 214.03 210.51 253.61 140 254.87C70.51 256.11 54.64 228.94 0 184.11C-15.36 171.5 0 162.06 0 140C0 70 -35 35 0 0C35 -35 70 0 140 0C173.76 0 182.55 -17.45 207.53 0" stroke="rgba(51, 121, 194, 0.58)" stroke-width="2"></path><path d="M700 68.99C653.47 28.73 596.52 18.83 596.52 0C596.52 -15.67 648.26 0 700 0C770 0 770 0 840 0C844.88 0 847.09 -3.93 849.77 0C894.73 66.07 918.6 64.94 935.28 140C949.71 204.94 908.7 210.68 912 280C915.37 350.68 951.58 350.83 948.62 420C945.58 490.83 938.66 510.17 900 560C884.35 580.17 870 560 840 560C770 560 770 560 700 560C663.41 560 658.55 573.07 626.82 560C588.55 544.24 590.83 502.35 560 502.35C534.09 502.35 544.33 547.24 513.33 560C474.33 576.06 466.66 560 420 560C350 560 350 560 280 560C210 560 210 560 140 560C70 560 35 595 0 560C-35 525 0 490 0 420C0 401.47 -13.8 392.14 0 382.94C56.2 345.48 87.97 315.47 140 326.67C174.04 334 143.25 382.16 172.13 420C213.25 473.89 221.59 506.02 280 510.14C345.53 514.77 351.08 475.54 420 437.5C432.74 430.47 437.82 433.08 443.33 420C470.98 354.33 448.74 335.83 486.32 280C507.07 249.17 527.51 246.67 560 246.67C576.63 246.67 568.36 267.49 584.56 280C638.36 321.54 645.68 354.77 700 354.77C743.04 354.77 766.59 326.71 779.28 280C795.76 219.32 782.37 203.97 758.33 140C742.73 98.47 734.38 98.73 700 68.99" stroke="rgba(51, 121, 194, 0.58)" stroke-width="2"></path><path d="M1062.56 140C1053.79 72.33 1060.84 55.72 1083.7 0C1089.56 -14.28 1101.85 0 1120 0C1190 0 1190 0 1260 0C1330 0 1330 0 1400 0C1470 0 1491 -21 1540 0C1561 9 1556.84 38.57 1540 60C1501.84 108.57 1472.28 90.48 1430 140C1402.28 172.48 1415.3 182.11 1400 224C1389.73 252.11 1378.87 253.65 1378.87 280C1378.87 294.98 1391.28 292.1 1400 306.67C1433.16 362.1 1462.63 367.43 1462.63 420C1462.63 456.7 1432.34 485.21 1400 485.21C1365.51 485.21 1364.99 452.03 1328.96 420C1294.99 389.81 1297.61 385.97 1260 360.77C1193.13 315.97 1190 320.38 1120 280C1120 280 1120 280 1120 280C1091.28 210 1071.94 212.33 1062.56 140" stroke="rgba(51, 121, 194, 0.58)" stroke-width="2"></path><path d="M1465.88 280C1465.88 267.9 1511.61 256.23 1540 256.23C1548.67 256.23 1540 268.12 1540 280C1540 292.36 1548.9 304.71 1540 304.71C1511.84 304.71 1465.88 292.14 1465.88 280" stroke="rgba(51, 121, 194, 0.58)" stroke-width="2"></path><path d="M1043.1 560C1043.1 529.22 1079.49 460.73 1120 460.73C1163.44 460.73 1211 530.38 1211 560C1211 580.02 1165.5 560 1120 560C1081.55 560 1043.1 578.85 1043.1 560" stroke="rgba(51, 121, 194, 0.58)" stroke-width="2"></path><path d="M31.11 140C14.74 135.42 3.31 140.91 0 126C-12.24 70.91 -33.16 29.84 0 0C36.84 -33.16 70 0 140 0C153.18 0 160.66 -10.56 166.35 0C198.35 59.44 223.96 86.23 215.38 140C210.78 168.8 178.29 165.13 140 165.13C86.15 165.13 84.74 154.99 31.11 140" stroke="rgba(51, 121, 194, 0.58)" stroke-width="2"></path><path d="M700 18.26C685.55 18.26 672.61 4.98 672.61 0C672.61 -4.15 686.31 0 700 0C720.33 0 740.65 -4.36 740.65 0C740.65 4.77 719.57 18.26 700 18.26" stroke="rgba(51, 121, 194, 0.58)" stroke-width="2"></path><path d="M800 140C803.43 100.56 818.77 66.96 840 66.96C862.1 66.96 882.5 99.65 886.67 140C893.5 206.17 861.6 210.07 862 280C862.4 350.07 893.79 351.51 888.28 420C882.79 488.18 887.32 522.05 840 553.33C793.18 584.27 761.61 570.76 700 544.44C621.61 510.96 630.34 488.63 560 433.73C550.62 426.41 540.56 429.08 540.56 420C540.56 404.72 542.3 387.82 560 385C622.02 375.1 640.3 418.53 700 394.55C771.03 366.03 794.4 348.86 821.45 280C844.4 221.58 794.16 207.08 800 140" stroke="rgba(51, 121, 194, 0.58)" stroke-width="2"></path><path d="M1172.5 140C1164.11 70.5 1138.03 41.56 1164 0C1181.78 -28.44 1212 0 1260 0C1305.4 0 1336.11 -27.44 1350.81 0C1373.61 42.56 1344.47 70.21 1335 140C1325.48 210.21 1338.68 219.37 1312.83 280C1301.18 307.32 1287.08 315.9 1260 315.9C1229.55 315.9 1212.46 309.51 1197.78 280C1168.71 221.56 1181 210.5 1172.5 140" stroke="rgba(51, 121, 194, 0.58)" stroke-width="2"></path><path d="M1540 14.55C1518.89 14.55 1486.67 3.7 1486.67 0C1486.67 -3.57 1519.05 -5.72 1540 0C1545.72 1.56 1545.56 14.55 1540 14.55" stroke="rgba(51, 121, 194, 0.58)" stroke-width="2"></path><path d="M1381.19 420C1381.19 406.27 1391.01 390 1400 390C1408.7 390 1416.58 406.09 1416.58 420C1416.58 429.72 1408.56 437.26 1400 437.26C1390.87 437.26 1381.19 429.9 1381.19 420" stroke="rgba(51, 121, 194, 0.58)" stroke-width="2"></path><path d="M56 560C56 542.5 94.37 497.39 140 497C206.37 496.43 208.87 554.67 280 558.08C348.87 561.38 357.47 509.74 420 510.42C446.36 510.7 457.78 544.57 457.78 560C457.78 569.36 438.89 560 420 560C350 560 350 560 280 560C210 560 210 560 140 560C98 560 56 574 56 560" stroke="rgba(51, 121, 194, 0.58)" stroke-width="2"></path><path d="M1092.39 560C1092.39 548.95 1105.46 524.36 1120 524.36C1135.6 524.36 1152.67 549.37 1152.67 560C1152.67 567.19 1136.34 560 1120 560C1106.2 560 1092.39 566.77 1092.39 560" stroke="rgba(51, 121, 194, 0.58)" stroke-width="2"></path></g><defs><mask id="SvgjsMask1003"><rect width="1440" height="560" fill="#ffffff"></rect></mask><linearGradient x1="15.28%" y1="-39.29%" x2="84.72%" y2="139.29%" gradientUnits="userSpaceOnUse" id="SvgjsLinearGradient1004"><stop stop-color="#0e2a47" offset="0"></stop><stop stop-color="#00459e" offset="1"></stop></linearGradient></defs></svg>